<?xml version="1.0" standalone="no"?><!DOCTYPE svg PUBLIC "-//W3C//DTD SVG 1.1//EN" "http://www.w3.org/Graphics/SVG/1.1/DTD/svg11.dtd"><svg t="1781660895799" class="icon" viewBox="0 0 1024 1024" version="1.1" xmlns="http://www.w3.org/2000/svg" p-id="8744" xmlns:xlink="http://www.w3.org/1999/xlink" width="64" height="64"><path d="M797.52704 512.90112h-159.09888v53.31456h159.09888v-53.31456z m81.42848-346.5216H136.5248c-43.9296 0-79.54432 35.79904-79.54432 79.96416v533.11488c0 44.16 35.61472 79.96416 79.54432 79.96416h742.43072c43.9296 0 79.54432-35.80416 79.54432-79.96416V246.34368c0-44.16512-35.6096-79.96416-79.54432-79.96416z m26.51136 559.7696c0 44.16512-35.6096 79.95904-79.5392 79.95904H189.55776c-43.9296 0-79.54432-35.79904-79.54432-79.95904V406.272h795.45344v319.872z m0-373.18144H110.01344V299.65824c0-44.16512 35.6096-79.96416 79.54432-79.96416h636.3648c43.93472 0 79.54432 35.79904 79.54432 79.96416v53.30944z m-371.21024 159.93344H163.04128v53.31456h371.21536v-53.31456zM375.16288 619.52h-212.1216v53.30944h212.1216V619.52z" fill="#272636" p-id="8745"></path></svg>