<?xml version="1.0" standalone="no"?><!DOCTYPE svg PUBLIC "-//W3C//DTD SVG 1.1//EN" "http://www.w3.org/Graphics/SVG/1.1/DTD/svg11.dtd"><svg t="1756127384589" class="icon" viewBox="0 0 1024 1024" version="1.1" xmlns="http://www.w3.org/2000/svg" p-id="12488" xmlns:xlink="http://www.w3.org/1999/xlink" width="256" height="256"><path d="M896 480H544v-96h96a32 32 0 0 0 32-32V160a32 32 0 0 0-32-32h-256a32 32 0 0 0-32 32v192a32 32 0 0 0 32 32h96v96H128a32 32 0 0 0 0 64h128v96H160a32 32 0 0 0-32 32v192a32 32 0 0 0 32 32h256a32 32 0 0 0 32-32v-192a32 32 0 0 0-32-32h-96v-96h384v96h-96a32 32 0 0 0-32 32v192a32 32 0 0 0 32 32h256a32 32 0 0 0 32-32v-192a32 32 0 0 0-32-32h-96v-96h128a32 32 0 0 0 0-64z" fill="" p-id="12489" data-spm-anchor-id="a313x.search_index.0.i0.40743a81Y0DXKm" class="selected"></path></svg>