<?xml version="1.0" standalone="no"?><!DOCTYPE svg PUBLIC "-//W3C//DTD SVG 1.1//EN" "http://www.w3.org/Graphics/SVG/1.1/DTD/svg11.dtd"><svg t="1783518545993" class="icon" viewBox="0 0 1024 1024" version="1.1" xmlns="http://www.w3.org/2000/svg" p-id="7415" xmlns:xlink="http://www.w3.org/1999/xlink" width="64" height="64"><path d="M680.860444 182.940444C800.170667 244.280889 881.777778 368.611556 881.777778 512c0 204.231111-165.546667 369.777778-369.777778 369.777778l3.171556-0.028445 148.067555-476.856889h-127.146667zM474.823111 144.071111L369.777778 563.726222h123.306666v317.582222C297.671111 871.452444 142.222222 709.873778 142.222222 512c0-191.672889 145.834667-349.297778 332.600889-367.928889z" fill="#7E99FF" p-id="7416"></path><path d="M780.032 56.888889H481.991111L351.573333 577.948444l127.303111-0.014222V990.435556l204.245334-599.765334H562.346667L780.032 56.888889zM504.177778 85.333333h223.331555L509.838222 419.114667h133.518222L507.306667 818.673778V549.504l-119.310223-0.014222L504.177778 85.333333z" fill="#2F2F2F" p-id="7417"></path></svg>