<?xml version="1.0" standalone="no"?><!DOCTYPE svg PUBLIC "-//W3C//DTD SVG 1.1//EN" "http://www.w3.org/Graphics/SVG/1.1/DTD/svg11.dtd"><svg t="1756128261909" class="icon" viewBox="0 0 1024 1024" version="1.1" xmlns="http://www.w3.org/2000/svg" p-id="7679" width="64" height="64" xmlns:xlink="http://www.w3.org/1999/xlink"><path d="M742.72 461.76c-19.84 25.92-41.6 49.6-63.68 71.68 16.64 14.72 33.6 29.12 50.88 42.88-29.12 23.04-56.96 47.68-84.16 73.28-13.12-16.32-26.56-32.32-40.64-47.04-14.72-15.68-30.08-30.72-45.44-45.12 81.6-72.96 164.16-148.8 205.12-270.72A79.84 79.84 0 0 0 752 128 80 80 0 0 0 672 208c0 25.28 12.16 47.68 30.72 62.4-13.12 37.76-31.04 70.72-52.16 100.48A1247.392 1247.392 0 0 1 512.96 192c0 0.32-0.64 0.96-0.96 1.28a1220.672 1220.672 0 0 1-138.24 177.92c-21.44-29.76-39.04-62.72-52.48-100.48 18.56-14.72 30.72-37.12 30.72-62.4a80 80 0 0 0-160 0c0 39.68 29.12 72.64 67.2 78.72 40.96 121.92 123.52 198.08 205.12 270.72-15.36 14.4-30.72 29.44-45.44 45.12-14.08 14.72-27.52 30.4-40.64 46.72-27.2-25.6-55.04-50.88-84.48-73.92 17.28-13.44 33.92-27.84 50.56-42.24-22.08-22.08-43.52-45.76-63.36-72-48 41.6-98.88 80-152.96 113.92 73.92 46.72 142.08 101.76 204.16 162.88 13.44 13.12 26.56 26.56 39.36 40.32 34.88-72.96 85.44-126.72 140.48-177.6 55.04 50.88 105.28 104.64 140.48 177.28 13.12-14.08 26.88-27.52 40.64-40.96a1217.92 1217.92 0 0 1 203.2-160.32 1221.536 1221.536 0 0 1-153.28-115.2z m-228.48 50.56l-1.92 1.92s-1.28-1.28-2.24-1.92c-25.28-22.4-49.92-44.8-73.28-68.16 26.24-27.52 51.52-56 75.2-85.76 0 0 0-0.32 0.32-0.64 23.68 30.08 48.96 58.56 74.88 86.08-23.36 23.36-48 45.76-73.28 68.16z" p-id="7680" data-spm-anchor-id="a313x.search_index.0.i8.3bde3a81uKPJre" class="selected" fill="#1296db"></path><path d="M512 793.6l-0.64 0.64c-13.76-17.6-28.48-34.88-43.2-51.84-19.84 26.56-36.8 56-49.92 89.28 1.92 2.24 3.2 4.48 5.12 6.72 13.12 16 25.6 32.32 38.08 48.96 2.88 4.16 6.08 8 8.96 12.16 14.08 19.84 28.16 40 40.96 60.48 0-0.32 0.64-0.64 0.96-1.28 12.8-20.48 26.56-40 40.64-59.52 2.88-4.16 6.08-8 8.96-12.16 12.48-16.96 25.6-33.28 38.72-49.6 1.6-1.92 3.2-4.16 4.8-6.4-13.44-33.28-30.4-62.4-49.92-89.28-14.72 16.96-29.44 33.92-43.52 51.52z" p-id="7681"></path></svg>